<svg xmlns="http://www.w3.org/2000/svg" version="1.1" xmlns:xlink="http://www.w3.org/1999/xlink" xmlns:svgjs="http://svgjs.dev/svgjs" width="1000" height="151" viewBox="0 0 1000 151"><g transform="matrix(1,0,0,1,-0.6637645516269117,0.0497064946180501)"><svg viewBox="0 0 396 60" data-background-color="#ffffff" preserveAspectRatio="xMidYMid meet" height="151" width="1000" xmlns="http://www.w3.org/2000/svg" xmlns:xlink="http://www.w3.org/1999/xlink"><g id="tight-bounds" transform="matrix(1,0,0,1,0.2628507624442591,0.1688057094002886)"><svg viewBox="0 0 395.52 59.66238374546995" height="59.66238374546995" width="395.52"><g><svg viewBox="0 0 467.94861280609865 70.58790885517242" height="59.66238374546995" width="395.52"><g transform="matrix(1,0,0,1,72.42861280609866,9.7556371862069)"><svg viewBox="0 0 395.52 51.076634482758614" height="51.076634482758614" width="395.52"><g><svg viewBox="0 0 395.52 51.076634482758614" height="51.076634482758614" width="395.52"><g><svg viewBox="0 0 395.52 51.076634482758614" height="51.076634482758614" width="395.52"><g transform="matrix(1,0,0,1,0,0)"><svg width="395.52" viewBox="1.4500000476837158 -37.150001525878906 289.97998046875 37.45000076293945" height="51.076634482758614" data-palette-color="#010c80"><path d="M6.65 0L1.45 0 13.75-36.85 20.15-36.85 32.45 0 27.2 0 23.95-9.65 9.85-9.65 6.65 0ZM16.9-32.45L11.05-14.2 22.7-14.2 16.9-32.45ZM42.6 0L37.55 0 37.55-36.85 52.3-36.85Q54.2-36.85 55.97-36.4 57.75-35.95 59.15-34.75 60.55-33.55 61.35-31.38 62.15-29.2 62.15-25.7L62.15-25.7Q62.15-22.85 61.55-20.95 60.95-19.05 59.97-17.93 59-16.8 57.82-16.23 56.65-15.65 55.5-15.35L55.5-15.35 62.85 0 57.75 0 50.95-14.65Q50.2-14.65 49.12-14.68 48.05-14.7 46.87-14.7 45.7-14.7 44.57-14.75 43.45-14.8 42.6-14.8L42.6-14.8 42.6 0ZM42.6-32.35L42.6-18.7 51.5-18.7Q52.7-18.7 53.7-18.98 54.7-19.25 55.47-20.03 56.25-20.8 56.7-22.18 57.15-23.55 57.15-25.7L57.15-25.7Q57.15-27.8 56.7-29.1 56.25-30.4 55.45-31.1 54.65-31.8 53.65-32.08 52.65-32.35 51.5-32.35L51.5-32.35 42.6-32.35ZM90 0L76.05 0Q73.69 0 71.92-0.73 70.14-1.45 69.19-3.18 68.25-4.9 68.25-7.8L68.25-7.8 68.25-36.85 73.3-36.85 73.3-8.55Q73.3-6.95 73.84-6.08 74.39-5.2 75.3-4.9 76.19-4.6 77.25-4.6L77.25-4.6 90-4.6 90 0ZM103.09 0.2L103.09 0.2Q101.84 0.2 100.44-0.03 99.04-0.25 97.77-0.98 96.49-1.7 95.69-3.2 94.89-4.7 94.89-7.25L94.89-7.25 94.89-29.15Q94.89-31.35 95.57-32.85 96.24-34.35 97.34-35.23 98.44-36.1 99.82-36.48 101.19-36.85 102.54-36.85L102.54-36.85Q105.79-36.8 108.52-36.73 111.24-36.65 113.59-36.55 115.94-36.45 118.09-36.35L118.09-36.35 118.09-32.2 103.89-32.2Q102.04-32.2 100.99-31.25 99.94-30.3 99.94-28.25L99.94-28.25 99.94-20.6 115.84-20.3 115.84-16.4 99.94-16.05 99.94-8.5Q99.94-6.8 100.52-5.95 101.09-5.1 102.02-4.8 102.94-4.5 103.99-4.5L103.99-4.5 118.09-4.5 118.09-0.35Q115.79-0.2 113.24-0.08 110.69 0.05 108.12 0.13 105.54 0.2 103.09 0.2ZM136.59 0.3L136.59 0.3Q133.29 0.3 130.84-0.45 128.39-1.2 126.74-3.18 125.09-5.15 124.29-8.88 123.49-12.6 123.49-18.55L123.49-18.55Q123.49-24.15 124.32-27.8 125.14-31.45 126.82-33.5 128.49-35.55 130.99-36.35 133.49-37.15 136.79-37.15L136.79-37.15Q138.64-37.15 140.62-36.95 142.59-36.75 144.42-36.43 146.24-36.1 147.69-35.7L147.69-35.7 147.69-31.9Q146.79-32.05 145.24-32.23 143.69-32.4 141.74-32.52 139.79-32.65 137.69-32.65L137.69-32.65Q135.19-32.65 133.44-32.08 131.69-31.5 130.59-29.98 129.49-28.45 128.99-25.68 128.49-22.9 128.49-18.5L128.49-18.5Q128.49-14.05 128.97-11.23 129.44-8.4 130.49-6.88 131.54-5.35 133.29-4.78 135.04-4.2 137.64-4.2L137.64-4.2Q141.39-4.2 143.79-4.4 146.19-4.6 147.69-4.8L147.69-4.8 147.69-0.95Q146.19-0.6 144.39-0.3 142.59 0 140.62 0.15 138.64 0.3 136.59 0.3ZM165.19 0.3L165.19 0.3Q161.89 0.3 159.44-0.45 156.99-1.2 155.34-3.18 153.69-5.15 152.89-8.88 152.09-12.6 152.09-18.55L152.09-18.55Q152.09-24.15 152.91-27.8 153.74-31.45 155.41-33.5 157.09-35.55 159.59-36.35 162.09-37.15 165.39-37.15L165.39-37.15Q167.24-37.15 169.21-36.95 171.19-36.75 173.01-36.43 174.84-36.1 176.29-35.7L176.29-35.7 176.29-31.9Q175.39-32.05 173.84-32.23 172.29-32.4 170.34-32.52 168.39-32.65 166.29-32.65L166.29-32.65Q163.79-32.65 162.04-32.08 160.29-31.5 159.19-29.98 158.09-28.45 157.59-25.68 157.09-22.9 157.09-18.5L157.09-18.5Q157.09-14.05 157.56-11.23 158.04-8.4 159.09-6.88 160.14-5.35 161.89-4.78 163.64-4.2 166.24-4.2L166.24-4.2Q169.99-4.2 172.39-4.4 174.79-4.6 176.29-4.8L176.29-4.8 176.29-0.95Q174.79-0.6 172.99-0.3 171.19 0 169.21 0.15 167.24 0.3 165.19 0.3ZM187.13 0L182.09 0 182.09-36.85 187.13-36.85 187.13-20.3 204.19-20.3 204.19-36.85 209.19-36.85 209.19 0 204.19 0 204.19-15.8 187.13-15.8 187.13 0ZM221.53 0L216.48 0 216.48-36.85 221.53-36.85 221.53 0ZM234.43 0L229.38 0 229.38-36.85 233.48-36.85 251.53-8.6 251.53-36.85 256.53-36.85 256.53 0 252.48 0 234.43-28.25 234.43 0ZM276.88 0.3L276.88 0.3Q273.28 0.3 270.55-0.4 267.83-1.1 266-3 264.18-4.9 263.28-8.6 262.38-12.3 262.38-18.3L262.38-18.3Q262.38-24.3 263.28-28.03 264.18-31.75 266.03-33.73 267.88-35.7 270.58-36.43 273.28-37.15 276.88-37.15L276.88-37.15Q280.58-37.15 283.3-36.43 286.03-35.7 287.83-33.73 289.63-31.75 290.53-28.03 291.43-24.3 291.43-18.3L291.43-18.3Q291.43-12.3 290.53-8.6 289.63-4.9 287.8-3 285.98-1.1 283.25-0.4 280.53 0.3 276.88 0.3ZM276.88-4.2L276.88-4.2Q279.48-4.2 281.3-4.75 283.13-5.3 284.25-6.78 285.38-8.25 285.88-11.03 286.38-13.8 286.38-18.3L286.38-18.3Q286.38-23.05 285.85-25.9 285.33-28.75 284.23-30.2 283.13-31.65 281.3-32.15 279.48-32.65 276.88-32.65L276.88-32.65Q274.43-32.65 272.63-32.15 270.83-31.65 269.68-30.2 268.53-28.75 267.95-25.9 267.38-23.05 267.38-18.3L267.38-18.3Q267.38-13.8 267.85-11.03 268.33-8.25 269.45-6.78 270.58-5.3 272.4-4.75 274.23-4.2 276.88-4.2Z" opacity="1" transform="matrix(1,0,0,1,0,0)" fill="#010c80" class="undefined-text-0" data-fill-palette-color="primary" id="text-0"></path></svg></g></svg></g></svg></g></svg></g><g><svg viewBox="0 0 60.37064524394694 70.58790885517242" height="70.58790885517242" width="60.37064524394694"><g><svg xmlns="http://www.w3.org/2000/svg" data-name="Layer 1" viewBox="24.239933013916016 19.876708984375 51.52335739135742 60.2432861328125" x="0" y="0" height="70.58790885517242" width="60.37064524394694" class="icon-icon-0" data-fill-palette-color="accent" id="icon-0"><path d="M75.49 31.49L52.76 19.93a0.5 0.5 0 0 0-0.67 0.22L40.53 42.88a0.5 0.5 0 0 0 0.22 0.67L53.6 50.09 29 53.93a0.5 0.5 0 0 0-0.42 0.57l3.93 25.2a0.5 0.5 0 0 0 0.49 0.42h0.08l25.2-3.93a0.5 0.5 0 0 0 0.42-0.57L54.79 50.69l8.69 4.42a0.5 0.5 0 0 0 0.67-0.22L75.71 32.16A0.5 0.5 0 0 0 75.49 31.49ZM33.4 79.05L29.63 54.84l24.21-3.77 3.77 24.21ZM63.48 54L41.64 42.89l11.1-21.84 21.84 11.1Z" fill="#0023ff" data-fill-palette-color="accent"></path><path d="M41.29 73.79l-4.89 0.76-0.72-4.62a0.5 0.5 0 1 0-1 0.15l0.8 5.11a0.5 0.5 0 0 0 0.49 0.42h0.08l5.39-0.84a0.5 0.5 0 1 0-0.15-1Z" fill="#0023ff" data-fill-palette-color="accent"></path><path d="M56.95 49h0l5.17-0.22a0.5 0.5 0 0 0 0.48-0.52l-0.23-5.45a0.51 0.51 0 0 0-0.52-0.48 0.5 0.5 0 0 0-0.48 0.52l0.21 4.95-4.67 0.2a0.5 0.5 0 0 0 0 1Z" fill="#0023ff" data-fill-palette-color="accent"></path><path d="M66.74 67.27a2.38 2.38 0 1 0 2.38 2.38A2.38 2.38 0 0 0 66.74 67.27Zm0 3.75a1.38 1.38 0 1 1 1.38-1.37A1.38 1.38 0 0 1 66.74 71Z" fill="#0023ff" data-fill-palette-color="accent"></path><path d="M32.12 43.52a2.38 2.38 0 1 0-2.37 2.38A2.38 2.38 0 0 0 32.12 43.52Zm-3.75 0a1.38 1.38 0 1 1 1.38 1.38A1.38 1.38 0 0 1 28.37 43.52Z" fill="#0023ff" data-fill-palette-color="accent"></path><path d="M38 33.9a2.38 2.38 0 1 0-2.37-2.37A2.38 2.38 0 0 0 38 33.9Zm0-3.75a1.38 1.38 0 1 1-1.37 1.38A1.38 1.38 0 0 1 38 30.15Z" fill="#0023ff" data-fill-palette-color="accent"></path><path d="M29 28.9a2.38 2.38 0 1 0-2.37 2.38A2.38 2.38 0 0 0 29 28.9Zm-2.37 1.38A1.38 1.38 0 1 1 28 28.9 1.38 1.38 0 0 1 26.62 30.27Z" fill="#0023ff" data-fill-palette-color="accent"></path></svg></g></svg></g></svg></g><defs></defs></svg><rect width="395.52" height="59.66238374546995" fill="none" stroke="none" visibility="hidden"></rect></g></svg></g></svg>